<svg xmlns="http://www.w3.org/2000/svg" viewBox="0 0 433 479"><defs><style>.cls-1{fill:#ebeff3;}.cls-2{fill:#f3af64;}.cls-14,.cls-24,.cls-28,.cls-3,.cls-40,.cls-5{fill:none;stroke-miterlimit:10;}.cls-3{stroke:#9e98a4;}.cls-4{fill:#f5c650;}.cls-5{stroke:#5d74a4;}.cls-6{fill:#75c0a1;}.cls-7{fill:#8fcdff;}.cls-8{fill:#f8d2a1;}.cls-9{fill:#eab095;}.cls-10{fill:#e44854;}.cls-11{fill:#282c3b;}.cls-12{fill:#0a1d40;}.cls-13{fill:#43253d;}.cls-14{stroke:#43253d;stroke-width:0.61px;}.cls-15{fill:#cf9c84;}.cls-16{fill:#292c3b;}.cls-17{fill:#dca07b;}.cls-18{fill:#543a52;}.cls-19{fill:#4036ae;}.cls-20{fill:#332b8b;}.cls-21{fill:#fff;}.cls-22{fill:#d078ca;}.cls-23{fill:#e08cd7;}.cls-24{stroke:#292c3b;stroke-width:0.5px;}.cls-25{fill:#ddbb8f;}.cls-26{fill:#db4c4d;}.cls-27{fill:#940b00;}.cls-28{stroke:#940b00;stroke-width:0.65px;}.cls-29{fill:#f65557;}.cls-30{fill:#313b64;}.cls-31{fill:#608cce;}.cls-32{fill:#2e5388;}.cls-33{fill:#78a8df;}.cls-34{fill:#3e689e;}.cls-35{fill:#424e7a;}.cls-36{fill:#77a6e4;}.cls-37{fill:#ff7a6a;}.cls-38{fill:#fc0;}.cls-39{fill:#b7b7cf;}.cls-40{stroke:#b7b7cf;}</style></defs><title>landing_vector</title><g id="Layer_2" data-name="Layer 2"><g id="OBJECTS"><ellipse class="cls-1" cx="216.5" cy="469.5" rx="216.5" ry="9.5"/><polygon class="cls-1" points="315.97 348.85 334.26 465.92 337.78 465.91 323.31 348.83 315.97 348.85"/><polygon class="cls-1" points="299.34 348.9 281.66 466.08 278.14 466.09 292 348.93 299.34 348.9"/><rect class="cls-2" x="285.25" y="342.16" width="45.42" height="8.81"/><rect class="cls-1" x="288.5" y="405.9" width="38.92" height="2.94"/><rect class="cls-1" x="15.8" y="113.14" width="414.78" height="191.7"/><rect class="cls-3" x="238.5" y="220.5" width="74" height="47.5" transform="translate(551 488.5) rotate(180)"/><circle class="cls-4" cx="158.64" cy="151.5" r="8.85" transform="translate(-60.66 156.54) rotate(-45)"/><line class="cls-5" x1="144.5" y1="167.5" x2="220.5" y2="167.5"/><line class="cls-5" x1="144.5" y1="173" x2="185" y2="173"/><line class="cls-5" x1="144.5" y1="178.5" x2="185" y2="178.5"/><path class="cls-5" d="M234.78,211.85c-.71-1.21.38-2.83,1.73-3.21a7.08,7.08,0,0,1,4.11.55,6.78,6.78,0,0,0,4.11.5c1-.29,1.86-1,2.84-.81,1.17.25,1.69,1.67,2.73,2.26,1.36.77,3-.09,4.49-.58a18.12,18.12,0,0,1,5.55-.6l25-.12"/><rect class="cls-3" x="144.77" y="187.5" width="39.4" height="77.96" transform="translate(328.94 452.96) rotate(180)"/><rect class="cls-3" x="145" y="145.5" width="74" height="12"/><circle class="cls-6" cx="253.36" cy="184.5" r="8.85"/><circle class="cls-7" cx="277.5" cy="184.5" r="8.85"/><circle class="cls-4" cx="301.64" cy="184.5" r="8.85"/><rect class="cls-3" x="238.5" y="178.5" width="74" height="12"/><rect class="cls-7" x="278" y="235.73" width="28" height="25.89"/><path class="cls-8" d="M385.54,412.36c-4.28-19.21-7-29.42-7-29.42,2.29-8.19,4.36-39.29,4.36-39.29L358,344.75c1.64,19.18,3,34.23,4.43,43.27,1.25,7.9,17.67,42.65,19.08,58,.23,2.52-1.63,5.89-1.63,5.89l-.88,5.59s10.76-5.28,12.88-8.68,2-8.13-.43-12.42S389.72,431.09,385.54,412.36Z"/><path class="cls-9" d="M391.46,436.35c-2.12-3.79-1.86-5-4.64-18.11a189.4,189.4,0,0,1-6.11,22.71,42.26,42.26,0,0,1,.82,5c.23,2.52-1.63,5.89-1.63,5.89l-.88,5.59s10.76-5.28,12.88-8.68S393.87,440.65,391.46,436.35Z"/><path class="cls-10" d="M379.9,451.86a13.27,13.27,0,0,0,9.19-4.35c4.49-4.88,2.38-11.17,2.38-11.17a27,27,0,0,1,3.76,5.17c1.16,2.27,1.17,4.44,2.08,6.21l2.39,4.67-2.62,1.35-3.43-5.24s-3.37,7.86-6.83,10.49c-2.22,1.69-13.8,7.46-13.8,7.46s-1.2-2.33,2.27-7.06A40.33,40.33,0,0,0,379.9,451.86Z"/><path class="cls-8" d="M362.45,220a17.1,17.1,0,0,0-7.7,11.15c-1.64,7.87-3.8,36.07-4.26,40.65-.33,3.28,4.92,7.87,8.52,4.92s6.23-25.24,7-27,5.74-13.93,5.74-13.93Z"/><path class="cls-9" d="M352,254.76c-.72,7.83-1.29,15-1.5,17.06-.33,3.28,4.92,7.87,8.52,4.92s6.23-25.24,7-27,5.74-13.93,5.74-13.93l-4.56-7.68C362,236.86,357,245.84,352,254.76Z"/><path class="cls-11" d="M382.55,182.47l-3.09-11.77a12.8,12.8,0,0,0-10.57,1.75c-5.22,3.54-9.55,8-11,11.09-2.64,5.43-.07,12.05,2.79,16.13s6.59,10.11,7.39,12.73a11.24,11.24,0,0,1,.67,3.93s5.14-.09,11.46-5.39a28.48,28.48,0,0,0,8.41-12.22Z"/><path class="cls-11" d="M364.73,183.49s3.93-7.34,9.28-10.27,8.64-4.54,12-1.87,7.43,4.34,10.67,12,1.53,18.14,2.13,20.8-12.7,8.46-12.7,8.46A22.64,22.64,0,0,0,383,197.84C378.47,190.06,364.73,183.49,364.73,183.49Z"/><path class="cls-8" d="M366.1,182.86c5,.88,11.87,8.27,15.8,10s3.78-1.82,6.68-1.83,3,3.73,1.22,6.82a24.49,24.49,0,0,1-2.07,3.14c-2.2,3-.82,6.43-7.53,10-3.61,1.92-9.07-.2-12.54-5.54s-5.78-21.26-5.78-21.26S362.07,182.16,366.1,182.86Z"/><path class="cls-8" d="M377.19,209.14c.59,2.93-.78,9.19-.78,9.19s12.54-1.77,16.26-2.55c0,0-5.47-10.18-5.9-14.3Z"/><path class="cls-8" d="M383.65,215.59l4.69-2.74s5.67,1.76,10.56,2.74,6.25,1.32,6.25,1.32-5.27,20.78-20.14,21-17.8-19.17-17.8-19.17l9.58-3.52Z"/><path class="cls-8" d="M408.18,337.7l-26.06,5.08c-1,17.59,2,45.25,3.44,54.09,1.48,9.34,2.46,46.22,2.46,46.22a23.13,23.13,0,0,1-1.15,7.7c-1.31,3.61-5.57,8.52-5.57,8.52l5.9,3.93c7.54-2,11.47-13.44,11.47-13.44s-1.31-1.3-.56-8.81c.89-8.88,3.9-21,4.16-31.35.49-19.18.33-27.7.33-27.7C403.92,365.57,408.18,337.7,408.18,337.7Z"/><path class="cls-10" d="M373.78,216.61s.62,3.41,7.13,5,14.73-6.67,14.73-6.67l11.53,2.33s-2.95,4.65-3.26,8.68a48.89,48.89,0,0,0,.31,8.68s-1.44,20.26.42,34.22,5.61,19.2,7.47,38.74-6.23,48.84-6.23,48.84A162.15,162.15,0,0,1,383.29,360c-11.78.93-24.5-2.37-24.5-2.37s-4-25.77-.77-46.42c2.55-16.07,8.93-26.95,7.69-36.56s-.62-26-1.86-29.46-.54-6.49.4-10.52c0,0-3.18-12.12-1.8-14.59A96.36,96.36,0,0,1,373.78,216.61Z"/><path class="cls-8" d="M365.24,246.9s-1.43,12.52-2.41,19.63c0,.13,0,.25,0,.36-1,7.05-3.6,11.15-6.22,11.48s-5.58-2-6.07-6.56,3-9.18,4.92-14.75c.51-1.47,1.07-3,1.6-4.44,1.48-4.11,2.82-7.68,2.82-7.68Z"/><path class="cls-9" d="M365.24,246.9s-1.43,12.52-2.41,19.63l-4.14-3.24L357,252.62c1.48-4.11,2.82-7.68,2.82-7.68Z"/><path class="cls-8" d="M361.3,243.46c.66-1.15,3.44-5.41,3.44-5.41l3.28-.16,1.31,5.08-2.79,3.44Z"/><rect class="cls-12" x="360.81" y="241.99" width="11.47" height="22.29" rx="0.78" ry="0.78" transform="translate(-38.66 68.09) rotate(-10.08)"/><path class="cls-8" d="M407.17,217.23a11.77,11.77,0,0,1,8.38,6.57c3,5.9,1,49.17,1,49.17s-8.85,2-19.18-3.93-29-9.83-29-9.83l1.47-7.38s9.89,1.49,15.73,2.46a150.16,150.16,0,0,1,20.16,5.41s-1-20.69-1.5-25.1S401.74,223,407.17,217.23Z"/><path class="cls-8" d="M375.89,253.3l-2.13-5.57-3-2.62,1.15,4.75a39.12,39.12,0,0,1-5.9-.16c-1.48-.33-6.56-2.13-6.56-2.13l-1.48,2,.82,1.15-1,1.8.66,2.46-1,1.8,1.48,1.48-.66,1.8s1.15.16,1.48.82,3.77,0,5.74-.33a83.52,83.52,0,0,1,9.18,0Z"/><path class="cls-10" d="M381.3,458.33a13.27,13.27,0,0,0,10.16.33c6.23-2.29,7.21-8.85,7.21-8.85a27,27,0,0,1,1,6.31c0,2.55-1,4.48-1,6.47v5.24h-3l-.66-6.23s-7,5.24-9.75,6.06c-4,1.21-16.8.49-16.8.49s0-2.62,5.24-5.24A40.33,40.33,0,0,0,381.3,458.33Z"/><circle class="cls-13" cx="373.39" cy="192.45" r="1.26"/><circle class="cls-13" cx="365.43" cy="195.53" r="1.26"/><path class="cls-10" d="M374.17,205.59a3.23,3.23,0,0,0,2.25-.91,6.44,6.44,0,0,0,1.46-3.47,3.35,3.35,0,0,1-2.66,1.39c-.93,0-1,.3-1.54.4a3.36,3.36,0,0,0-2.23,1.28A6.4,6.4,0,0,0,374.17,205.59Z"/><path class="cls-14" d="M377.23,202.6c-1.3,1.79-3.73,2.17-5.78,1.68"/><path class="cls-14" d="M369,196.39v4.45a1.72,1.72,0,0,0,.32,1.22,1.81,1.81,0,0,0,1.37.47,5.68,5.68,0,0,0,1.49-.3"/><polygon class="cls-1" points="248.63 348.85 266.92 465.92 270.44 465.91 255.97 348.83 248.63 348.85"/><polygon class="cls-1" points="232 348.9 214.32 466.08 210.8 466.09 224.66 348.93 232 348.9"/><rect class="cls-2" x="217.91" y="342.16" width="45.42" height="8.81"/><rect class="cls-1" x="221.16" y="405.9" width="38.92" height="2.94"/><polygon class="cls-15" points="252.12 226.01 253.43 218.33 255.71 214.25 259.8 212.94 260.12 216.37 252.12 226.01"/><path class="cls-16" d="M266.59,210.73l1.48,2.52a0,0,0,0,1,0,0l-16.87,9.91a.35.35,0,0,1-.48-.13l-1.13-1.93a.35.35,0,0,1,.13-.48l16.87-9.91Z"/><path class="cls-16" d="M264.86,212.14l1.13,1.92h0l-16.59,9.75a.68.68,0,0,1-.93-.24l-.45-.77a.68.68,0,0,1,.24-.93l16.59-9.75Z"/><path class="cls-16" d="M271.26,209.68h0a.55.55,0,0,1-.2.75l-5.9,3.47a.55.55,0,0,1-.75-.2h0a.55.55,0,0,1,.2-.75l5.9-3.47A.55.55,0,0,1,271.26,209.68Z"/><polygon class="cls-16" points="266.59 210.73 268.06 213.24 270.57 210.86 269.89 209.7 266.59 210.73"/><rect class="cls-1" x="259.49" y="211.04" width="0.82" height="10.62" transform="translate(205.04 550.04) rotate(-120.44)"/><path class="cls-17" d="M250.29,227.33s1.66-2.3,2.81-3.94,4.57-4.41,5.39-6.21c1.2-2.63.08-3.19,1.8-5.39.66-.85,3.76-.16,3.76-.16l-1.8,3.92,2,2.78-.16,2.45c1,.49,1.14,3.76,1.14,3.76l-2,3.76s-4.25,3.1-5.72,3.92a67.52,67.52,0,0,0-6,4.9Z"/><path class="cls-17" d="M147.19,445l-1.7,7.39s3.73,6.21,4.65,8.17c2.63,5.6,2.48,5.83,2.48,5.83l-17.38-15.49-.26-8.22,5.37-4.55Z"/><path class="cls-18" d="M135,442.63l-6.33,5.45s7.72,10.75,12.15,17.29c2.69,4,19.9,3.14,19.9,3.14,2.69-3.25-10.54-8-10.54-8s-4.45-.37-8.59-5.56A47.25,47.25,0,0,1,135,442.63Z"/><path class="cls-19" d="M168.47,310.51s0,17.89.8,23.78c1.86,13.48,6.69,44.34,6.69,44.34l-36.88,58.89s-2.44,2.4,8.36,9.43c0,0,35.13-46.14,43-53.59s12.35-76.67,12.35-76.67Z"/><path class="cls-20" d="M171.23,345.13c7.29,17.22,12.45,31,18.84,48.56l.35-.33c7.84-7.45,12.35-76.67,12.35-76.67l-34.3-6.18s0,17.89.8,23.78C169.67,337.13,170.37,340.92,171.23,345.13Z"/><path class="cls-17" d="M191.7,452.7l-.81,3.56s3.6,3.88,5.46,5c5.33,3.14,5.33,3.41,5.33,3.41l-20.11-3.83-4.64-2,4.64-12.24Z"/><path class="cls-16" d="M198.27,184.58c6.3-1,13.82,2.29,15.23,8.4s-1.88,14.1-1.88,14.1-.94-14.1-10.81-15.52S198.27,184.58,198.27,184.58Z"/><polygon class="cls-21" points="247.38 230.49 250.29 227.33 256.15 239.04 244.89 245.8 247.38 230.49"/><path class="cls-17" d="M200.55,190.2c3.25-1.37,9.61-.4,11.36,8s3.06,15.11,0,20.68-7,4.77-15.29-1.19a21.39,21.39,0,0,1-8.74-15.11S196.34,192,200.55,190.2Z"/><circle class="cls-13" cx="209.87" cy="201.5" r="1.28"/><path class="cls-14" d="M209.9,212.59a4.76,4.76,0,0,0,3.11,1.82"/><path class="cls-17" d="M212.06,202.28l3.28,7.91a.69.69,0,0,1-.65,1.13l-3.05.45"/><path class="cls-19" d="M172.18,317.17s2.55,17.7,4.2,23.42c3.77,13.07,16.43,42.32,16.43,42.32l-13.54,68.61s4.19,1.75,12.42,1.18c0,0,19.73-57.17,19.73-68S207,318.38,207,318.38Z"/><path class="cls-22" d="M178.42,238.19c-2.76,9.2-8.12,35.47-9.3,50.34-.94,11.79-2.35,35.85-2.35,35.85s24,7.81,45.64.6c0,0-1.56-43-2.76-56.16s3-21,0-26.42-10.21-12.91-10.21-12.91L188,222.58S180.23,232.19,178.42,238.19Z"/><polygon class="cls-21" points="199.65 225.73 208.66 237.44 204.6 246.9 197.19 231.13 199.65 225.73"/><path class="cls-23" d="M182.78,244.65c5.24,9.39,27.92,23,33.33,27.92s30.13-22.72,37.79-28.12l-6.51-14s-13.05,16.71-27.22,23.62c0,0-17.56-18.47-23-23S175.59,231.77,182.78,244.65Z"/><path class="cls-16" d="M181.49,245c7.15,2.82,15.47,1.25,16.6-1.63.06-.15.12-.29.17-.44,3.65-9.9,3.13-23.46,5.73-32.32s5.7-21.77-5.73-26.06c-12.51-4.69-20.33,5.73-20.85,14.59-.44,7.55-.8,23.78-7.62,30.93C166.41,233.66,173.3,241.79,181.49,245Z"/><path class="cls-24" d="M204.25,189.25c4,6.75,5.25,25.75-8.58,33.35"/><path class="cls-18" d="M176.94,458.78l-2.36,8.37s7.34,1.2,15.7,1.76c4.79.32,22.14-.13,22.14-.13.39-4.2-16.06-7.54-16.06-7.54s-.91,1.35-7.25-.59A44.51,44.51,0,0,0,176.94,458.78Z"/><polygon class="cls-1" points="330.88 317.18 349.18 465.92 352.7 465.91 338.23 317.16 330.88 317.18"/><polygon class="cls-1" points="128.58 317.24 104.76 466.08 100.01 466.09 118.69 317.26 128.58 317.24"/><rect class="cls-2" x="102.62" y="310.5" width="249.93" height="8.81"/><path class="cls-15" d="M133.9,299.05s8,3.25,9.47,4,6.79,3,6.79,3l4.21,2.34,1.58-1.08-2-2.31-1.89-1.81-.29-3.73-9-2.73-8.18-.47Z"/><path class="cls-25" d="M136.72,293.64l14.89,1.62,11.08,7.53,2.37,7.29-2.94-.32-2.75-5.47-7.3-1.73s-6.26-.16-8.07-1.46-10-3.16-10-3.16Z"/><path class="cls-26" d="M81.51,238.88l19.29,32.79,35.92,22-.88,8.09S101.45,293.49,92,286c-9.25-7.35-30.43-39.34-30.43-39.34S67.74,226.82,81.51,238.88Z"/><path class="cls-8" d="M84.81,222.85a57.85,57.85,0,0,1-10,8L86.5,245s5.6-9.54,14-11Z"/><path class="cls-8" d="M109.61,212.55c2.72.8,3,4.67,4.17,6.77a6.44,6.44,0,0,0,1.84,2.26c.51.39,1.55.76,1.44,1.61-.15,1.17-2.72,1.72-3.36,2.68-1,1.56-.45,4-.87,5.75-1.35,5.72-5.74,8.83-11.37,6.31-8.33-3.73-17.94-12.86-17.61-22.63.12-3.49,2.22-7.23,4.54-9.73,2.73-2.93,8.49-3.19,12.19-2.3a15.72,15.72,0,0,1,6.11,3.65c1.53,1.35,3.95,3.17,4.78,5.06Z"/><circle class="cls-13" cx="110.53" cy="217.34" r="1.28"/><path class="cls-27" d="M98.38,195.59c2.83-.72,10.82-6.5,17.18,4.29,2.57,4.37,1.91,7.76,6.95,8.25-1.34,1.62-3.63,9.86-15.42,6.11a12.17,12.17,0,0,1-4.37-2.83c-1.23-1.09-2.24-3.6-3.5-4.42-2.43-1.58.19,3.19.33,5.35.09,1.41-2.62,5.83-3,6.72-2.86-1.32-1.17-3.6-3-5.91-1.67-2.14-4.29.18-4.07,2.52.34,3.63,3,4.46,3,4.46-.44,1.82-3,4.92-4,6.52-1.38-1.49-4.08-1.75-5-3.15-.71-1.06-3.15-9.49-3.72-11.86-1.24-5.08,2.74-16.3,9.79-11.62A28.6,28.6,0,0,1,98.38,195.59Z"/><path class="cls-27" d="M91.44,197.56a27.19,27.19,0,0,1,5.22-2.93,10.14,10.14,0,0,0,4.52-3.8,3.58,3.58,0,0,1-.36,3.77A8.44,8.44,0,0,1,97.72,197c-1.3.68-2.75,1.37-3.37,2.7-.77,1.66-1.59,5.47-4.53,3.5C87.72,201.83,90.14,198.63,91.44,197.56Z"/><path class="cls-28" d="M80.6,199.87a8.52,8.52,0,0,1,9.1.74.77.77,0,0,1,.36.52c0,.22-.28.42-.43.26.07-1.56.54-2.12.89-3.65.5-2.21,2.7-3.59,4.84-4.32"/><polygon class="cls-29" points="77.79 228.75 93.14 243.29 87.39 252.35 74.77 230.87 77.79 228.75"/><path class="cls-30" d="M68.66,393.51,58.6,405.76l27.1,20.31s2.17-7.87,1.23-10.52c-1.31-3.69-8.7-11.37-8.7-11.37Z"/><polygon class="cls-31" points="68.66 393.51 78.23 404.18 86.56 395.65 75.64 385.8 68.66 393.51"/><path class="cls-32" d="M81,319.5s42,32,47,41.5-50.5,38-50.5,38L70,388l25.5-24c-3-5.5-38.5-11-46-24.5Z"/><polygon class="cls-1" points="65.26 348.85 83.55 465.92 87.07 465.91 72.6 348.83 65.26 348.85"/><polygon class="cls-1" points="48.63 348.9 30.95 466.08 27.43 466.09 41.29 348.93 48.63 348.9"/><rect class="cls-2" x="34.54" y="342.16" width="45.42" height="8.81"/><rect class="cls-1" x="37.79" y="405.9" width="38.92" height="2.94"/><rect class="cls-33" x="118" y="306.22" width="52.98" height="4.27"/><rect class="cls-34" x="122.95" y="307.58" width="17.66" height="1.32"/><rect class="cls-34" x="143.26" y="307.58" width="2.61" height="1.32"/><polygon class="cls-34" points="170.99 308.91 172.57 309.57 190.24 260.83 188.65 260.16 170.99 308.91"/><path class="cls-34" d="M37.67,308.56l-1.32,8a24.77,24.77,0,0,0,19.4,28.27L103.5,356,70,388l7.5,11s40.74-27.41,50.5-38c1.76-1.91,6.54-8.6,3.75-11C115.5,336,81,319.5,81,319.5Z"/><path class="cls-35" d="M66,390.5l-12.5,9.75L75.5,426s3.84-7.2,3.5-10c-.47-3.88-6-13-6-13Z"/><polygon class="cls-36" points="66 390.5 73 403 83 396.5 72.5 383.5 66 390.5"/><path class="cls-37" d="M74.77,230.87S66,234.5,60,241.5c-28.18,32.87-24.5,79-24.5,79s19.5,17,45.5-1l6.39-67.15Z"/><path class="cls-9" d="M132.83,297.84s8.32,2.36,9.85,2.91,7.07,2.22,7.07,2.22l4.44,1.87,1.46-1.25-2.22-2.08-2.08-1.59-.69-3.67-9.29-1.73-8.18.42Z"/><path class="cls-8" d="M135.05,292.15h15l11.83,6.29,3.14,7h-3l-3.33-5.14-7.44-.92s-6.24.52-8.18-.57-10.26-2.06-10.26-2.06Z"/><path class="cls-29" d="M76,241.5l21,32.71,38.09,17.94v8.13s-35.08-4.46-45.3-10.92c-10-6.31-32.75-38-32.75-38S61,231,76,241.5Z"/><path class="cls-14" d="M106,229.28c1.32,1.82,3.8,2.2,5.88,1.71"/><circle class="cls-38" cx="313.37" cy="85.5" r="9.5"/><polygon class="cls-39" points="360.13 86.9 266.61 86.9 304.25 70.47 322.49 70.47 360.13 86.9"/><line class="cls-40" x1="313" x2="313" y2="76"/><circle class="cls-38" cx="130.88" cy="85.5" r="9.5"/><polygon class="cls-39" points="177.64 86.9 84.11 86.9 121.75 70.47 140 70.47 177.64 86.9"/><line class="cls-40" x1="130.51" x2="130.51" y2="76"/></g></g></svg>